<?xml version="1.0" standalone="no"?>
<!DOCTYPE svg PUBLIC "-//W3C//DTD SVG 20010904//EN"
 "http://www.w3.org/TR/2001/REC-SVG-20010904/DTD/svg10.dtd">
<svg version="1.0" xmlns="http://www.w3.org/2000/svg"
 width="700.000000pt" height="700.000000pt" viewBox="0 0 700.000000 700.000000"
 preserveAspectRatio="xMidYMid meet">
<metadata>
Created by potrace 1.11, written by Peter Selinger 2001-2013
</metadata>
<g transform="translate(0.000000,700.000000) scale(0.100000,-0.100000)"
fill="#000000" stroke="none">
<path d="M3417 6924 c-1 -1 -23 -4 -48 -7 -26 -3 -67 -11 -90 -18 -24 -7 -46
-13 -49 -14 -55 -13 -183 -78 -252 -128 -31 -23 -660 -645 -1396 -1382 -1446
-1448 -1384 -1381 -1452 -1557 -114 -294 -60 -643 135 -874 89 -104 2662
-2668 2721 -2710 84 -60 192 -110 304 -139 82 -21 112 -24 225 -21 72 2 142 7
156 10 123 28 251 84 346 152 67 47 2686 2665 2741 2739 56 75 104 170 131
259 32 105 33 112 36 251 2 108 -1 145 -20 220 -24 96 -75 214 -126 292 -49
75 -2696 2719 -2774 2771 -117 78 -241 128 -368 148 -39 6 -215 13 -220 8z
m225 -576 c48 -22 222 -193 1355 -1324 715 -715 1314 -1318 1330 -1342 29 -39
46 -91 57 -169 6 -46 -16 -133 -47 -184 -39 -66 -2631 -2652 -2684 -2678 -24
-12 -43 -19 -43 -16 0 3 -9 1 -19 -4 -28 -15 -106 -20 -154 -10 -108 23 -81
-2 -1458 1376 -1240 1241 -1318 1321 -1337 1373 -37 102 -34 188 9 278 18 36
323 347 1336 1359 829 828 1328 1320 1353 1333 92 47 210 50 302 8z"/>
<path d="M2460 3502 l0 -1521 548 4 c301 2 563 6 582 8 19 3 53 8 75 11 212
26 410 83 573 164 76 38 191 107 202 121 3 3 21 18 40 32 39 30 130 118 173
167 144 167 257 432 301 702 21 131 28 428 13 560 -15 124 -18 140 -46 252
-138 549 -561 908 -1168 993 -23 3 -57 8 -75 12 -18 3 -300 8 -625 10 l-593 5
0 -1520z m1258 959 c293 -75 470 -256 550 -566 28 -107 42 -264 37 -425 -5
-168 -6 -185 -24 -275 -72 -358 -273 -572 -609 -650 -97 -23 -169 -28 -377
-29 l-190 -1 -2 975 c-1 536 1 981 3 989 3 11 51 12 267 8 224 -4 274 -8 345
-26z"/>
</g>
</svg>
