<?xml version="1.0" encoding="UTF-8" standalone="no"?>
<!-- Created with Inkscape (http://www.inkscape.org/) -->

<svg
   xmlns:dc="http://purl.org/dc/elements/1.1/"
   xmlns:cc="http://creativecommons.org/ns#"
   xmlns:rdf="http://www.w3.org/1999/02/22-rdf-syntax-ns#"
   xmlns:svg="http://www.w3.org/2000/svg"
   xmlns="http://www.w3.org/2000/svg"
   xmlns:sodipodi="http://sodipodi.sourceforge.net/DTD/sodipodi-0.dtd"
   xmlns:inkscape="http://www.inkscape.org/namespaces/inkscape"
   viewBox="0 0 180.41359 69.350691"
   version="1.1"
   id="svg8"
   inkscape:version="0.92.2 (5c3e80d, 2017-08-06)"
   sodipodi:docname="The Docs Advert.svg">
    <defs
       id="defs2" />
    <sodipodi:namedview
       id="base"
       pagecolor="#ffffff"
       bordercolor="#666666"
       borderopacity="1.0"
       inkscape:pageopacity="0.0"
       inkscape:pageshadow="2"
       inkscape:zoom="1.18"
       inkscape:cx="357.77441"
       inkscape:cy="71.503827"
       inkscape:document-units="px"
       inkscape:current-layer="layer3"
       showgrid="false"
       inkscape:window-width="1366"
       inkscape:window-height="745"
       inkscape:window-x="-8"
       inkscape:window-y="-8"
       inkscape:window-maximized="1"
       units="px"
       showguides="false" />
    <metadata
       id="metadata5">
        <rdf:RDF>
            <cc:Work
               rdf:about="">
                <dc:format>image/svg+xml</dc:format>
                <dc:type
                   rdf:resource="http://purl.org/dc/dcmitype/StillImage" />
                <dc:title></dc:title>
            </cc:Work>
        </rdf:RDF>
    </metadata>
    <g
       inkscape:groupmode="layer"
       id="layer4"
       inkscape:label="Text - Object"
       transform="translate(-14.439165,-47.634184)">
        <g
           aria-label="Create, Review, Revise"
           transform="matrix(0.26458333,0,0,0.26458333,19.048719,1.7074162)"
           style="font-style:normal;font-variant:normal;font-weight:300;font-stretch:normal;font-size:32px;line-height:1.25;font-family:'Open Sans';-inkscape-font-specification:'Open Sans, Light';font-variant-ligatures:normal;font-variant-caps:normal;font-variant-numeric:normal;font-feature-settings:normal;text-align:center;letter-spacing:0px;word-spacing:0px;writing-mode:lr-tb;text-anchor:middle;fill:#ffffff;fill-opacity:1;stroke:none"
           id="flowRoot1643-0">
            <path
               d="m 297.85362,365.85502 q -2.26562,0 -4.0625,1.26302 -1.78385,1.26302 -2.83854,3.71094 -1.04167,2.43489 -1.04167,5.3125 0,2.43489 1.26302,3.89323 1.27604,1.44531 3.50261,1.44531 1.80989,0 4.19271,-0.74219 v 1.94011 q -1.1198,0.40364 -2.13542,0.58593 -1.01563,0.18229 -2.44792,0.18229 -3.15104,0 -4.94791,-1.9401 -1.79688,-1.95312 -1.79688,-5.3125 0,-3.39844 1.36719,-6.3151 1.38021,-2.92969 3.69791,-4.46615 2.31771,-1.53646 5.2474,-1.53646 2.56511,0 4.53125,1.04167 l -0.89844,1.83594 q -1.79687,-0.89844 -3.63281,-0.89844 z"
               style="font-style:italic;font-variant:normal;font-weight:normal;font-stretch:normal;font-size:26.66666794px;font-family:'Open Sans';-inkscape-font-specification:'Open Sans, Italic';font-variant-ligatures:normal;font-variant-caps:normal;font-variant-numeric:normal;font-feature-settings:normal;text-align:center;writing-mode:lr-tb;text-anchor:middle"
               id="path1720"
               inkscape:connector-curvature="0" />
            <path
               d="m 311.00466,368.6545 q 0.89844,0 1.5625,0.18229 l -0.46875,1.95312 q -0.6901,-0.16927 -1.36718,-0.16927 -1.1849,0 -2.22657,0.78125 -1.02864,0.78125 -1.80989,2.17448 -0.76823,1.38021 -1.13282,3.07292 l -1.39322,6.53646 h -2.1875 l 3.04687,-14.27084 h 1.8099 l -0.28646,2.64323 h 0.13021 q 0.9375,-1.23698 1.54948,-1.77083 0.61197,-0.54688 1.27604,-0.83333 0.67708,-0.29948 1.49739,-0.29948 z"
               style="font-style:italic;font-variant:normal;font-weight:normal;font-stretch:normal;font-size:26.66666794px;font-family:'Open Sans';-inkscape-font-specification:'Open Sans, Italic';font-variant-ligatures:normal;font-variant-caps:normal;font-variant-numeric:normal;font-feature-settings:normal;text-align:center;writing-mode:lr-tb;text-anchor:middle"
               id="path1722"
               inkscape:connector-curvature="0" />
            <path
               d="m 318.19216,383.44616 q -2.39583,0 -3.76302,-1.41927 -1.36719,-1.41927 -1.36719,-3.93229 0,-2.44792 0.96355,-4.6875 0.97656,-2.2526 2.57812,-3.5026 1.60156,-1.25 3.52865,-1.25 1.99219,0 2.99479,0.87239 1.0026,0.85938 1.0026,2.40886 0,2.34375 -2.16145,3.68489 -2.16146,1.32813 -6.1849,1.32813 h -0.42969 l -0.0521,1.04167 q 0,1.70572 0.79427,2.66927 0.80729,0.95052 2.48698,0.95052 0.82031,0 1.67969,-0.23438 0.87239,-0.23437 2.16145,-0.85937 v 1.90104 q -1.22395,0.57292 -2.16145,0.79427 -0.9375,0.23437 -2.07032,0.23437 z m 1.8099,-12.92968 q -1.34115,0 -2.52604,1.22395 -1.17188,1.22396 -1.79688,3.39844 h 0.15625 q 2.96875,0 4.54427,-0.76823 1.58855,-0.78125 1.58855,-2.2526 0,-0.69011 -0.48178,-1.14583 -0.46875,-0.45573 -1.48437,-0.45573 z"
               style="font-style:italic;font-variant:normal;font-weight:normal;font-stretch:normal;font-size:26.66666794px;font-family:'Open Sans';-inkscape-font-specification:'Open Sans, Italic';font-variant-ligatures:normal;font-variant-caps:normal;font-variant-numeric:normal;font-feature-settings:normal;text-align:center;writing-mode:lr-tb;text-anchor:middle"
               id="path1724"
               inkscape:connector-curvature="0" />
            <path
               d="m 333.28331,368.6545 q 1.19791,0 2.13541,0.65104 0.9375,0.63802 1.45834,1.84896 h 0.14323 l 0.87239,-2.23959 h 1.65365 l -3.03386,14.27084 h -1.73177 l 0.33855,-2.72136 h -0.10417 q -2.33073,2.98177 -4.90886,2.98177 -1.80989,0 -2.83854,-1.28906 -1.02864,-1.28906 -1.02864,-3.52864 0,-2.70834 0.92448,-5.02605 0.92448,-2.3177 2.55208,-3.63281 1.6276,-1.3151 3.56771,-1.3151 z m -2.47396,12.98177 q 1.26302,0 2.51302,-1.19792 1.25,-1.21094 2.03125,-3.13802 0.78125,-1.9401 0.78125,-3.88021 0,-1.34114 -0.72917,-2.13541 -0.72916,-0.79428 -1.91406,-0.79428 -1.35417,0 -2.52604,1.1198 -1.15885,1.11979 -1.82292,3.03385 -0.66406,1.91406 -0.66406,4.03646 0,1.48437 0.61198,2.22656 0.61198,0.72917 1.71875,0.72917 z"
               style="font-style:italic;font-variant:normal;font-weight:normal;font-stretch:normal;font-size:26.66666794px;font-family:'Open Sans';-inkscape-font-specification:'Open Sans, Italic';font-variant-ligatures:normal;font-variant-caps:normal;font-variant-numeric:normal;font-feature-settings:normal;text-align:center;writing-mode:lr-tb;text-anchor:middle"
               id="path1726"
               inkscape:connector-curvature="0" />
            <path
               d="m 345.15831,381.66231 q 0.71615,0 1.875,-0.33854 v 1.67969 q -0.44271,0.18229 -1.09375,0.3125 -0.65104,0.1302 -1.04167,0.1302 -1.6276,0 -2.5,-0.76822 -0.85937,-0.78125 -0.85937,-2.31771 0,-0.85938 0.23437,-1.95313 l 1.65365,-7.83854 h -2.23958 l 0.18229,-0.95052 2.40885,-1.01563 1.62761,-2.96875 h 1.27604 l -0.71615,3.28125 h 3.56771 l -0.33854,1.65365 h -3.55469 l -1.67969,7.86458 q -0.23437,1.13282 -0.23437,1.71875 0,0.72917 0.3776,1.1198 0.37761,0.39062 1.05469,0.39062 z"
               style="font-style:italic;font-variant:normal;font-weight:normal;font-stretch:normal;font-size:26.66666794px;font-family:'Open Sans';-inkscape-font-specification:'Open Sans, Italic';font-variant-ligatures:normal;font-variant-caps:normal;font-variant-numeric:normal;font-feature-settings:normal;text-align:center;writing-mode:lr-tb;text-anchor:middle"
               id="path1728"
               inkscape:connector-curvature="0" />
            <path
               d="m 355.06717,383.44616 q -2.39584,0 -3.76302,-1.41927 -1.36719,-1.41927 -1.36719,-3.93229 0,-2.44792 0.96354,-4.6875 0.97656,-2.2526 2.57813,-3.5026 1.60156,-1.25 3.52864,-1.25 1.99219,0 2.99479,0.87239 1.00261,0.85938 1.00261,2.40886 0,2.34375 -2.16146,3.68489 -2.16146,1.32813 -6.1849,1.32813 h -0.42968 l -0.0521,1.04167 q 0,1.70572 0.79427,2.66927 0.80729,0.95052 2.48698,0.95052 0.82031,0 1.67969,-0.23438 0.8724,-0.23437 2.16146,-0.85937 v 1.90104 q -1.22396,0.57292 -2.16146,0.79427 -0.9375,0.23437 -2.07031,0.23437 z m 1.80989,-12.92968 q -1.34114,0 -2.52604,1.22395 -1.17187,1.22396 -1.79687,3.39844 h 0.15625 q 2.96875,0 4.54427,-0.76823 1.58854,-0.78125 1.58854,-2.2526 0,-0.69011 -0.48177,-1.14583 -0.46875,-0.45573 -1.48438,-0.45573 z"
               style="font-style:italic;font-variant:normal;font-weight:normal;font-stretch:normal;font-size:26.66666794px;font-family:'Open Sans';-inkscape-font-specification:'Open Sans, Italic';font-variant-ligatures:normal;font-variant-caps:normal;font-variant-numeric:normal;font-feature-settings:normal;text-align:center;writing-mode:lr-tb;text-anchor:middle"
               id="path1730"
               inkscape:connector-curvature="0" />
            <path
               d="m 365.62706,380.08679 0.10416,0.29948 q -1.47135,3.05989 -3.51562,6.23698 h -1.67969 q 1.64063,-3.72396 2.65625,-6.53646 z"
               style="font-style:italic;font-variant:normal;font-weight:normal;font-stretch:normal;font-size:26.66666794px;font-family:'Open Sans';-inkscape-font-specification:'Open Sans, Italic';font-variant-ligatures:normal;font-variant-caps:normal;font-variant-numeric:normal;font-feature-settings:normal;text-align:center;writing-mode:lr-tb;text-anchor:middle"
               id="path1732"
               inkscape:connector-curvature="0" />
            <path
               d="m 380.18435,375.26908 -1.67969,7.91667 h -2.21354 l 4.02344,-19.03646 h 4.16667 q 5.80729,0 5.80729,4.76562 0,4.53125 -4.79167,5.84636 l 3.11198,8.42448 h -2.42187 l -2.72136,-7.91667 z m 1.91406,-9.17969 q -1.32812,6.43229 -1.51041,7.27865 h 2.1875 q 2.51302,0 3.86719,-1.10677 1.35416,-1.10677 1.35416,-3.17709 0,-1.57552 -0.88541,-2.27864 -0.8724,-0.71615 -2.85157,-0.71615 z"
               style="font-style:italic;font-variant:normal;font-weight:normal;font-stretch:normal;font-size:26.66666794px;font-family:'Open Sans';-inkscape-font-specification:'Open Sans, Italic';font-variant-ligatures:normal;font-variant-caps:normal;font-variant-numeric:normal;font-feature-settings:normal;text-align:center;writing-mode:lr-tb;text-anchor:middle"
               id="path1734"
               inkscape:connector-curvature="0" />
            <path
               d="m 396.73383,383.44616 q -2.39583,0 -3.76302,-1.41927 -1.36719,-1.41927 -1.36719,-3.93229 0,-2.44792 0.96354,-4.6875 0.97657,-2.2526 2.57813,-3.5026 1.60156,-1.25 3.52865,-1.25 1.99218,0 2.99479,0.87239 1.0026,0.85938 1.0026,2.40886 0,2.34375 -2.16146,3.68489 -2.16146,1.32813 -6.18489,1.32813 h -0.42969 l -0.0521,1.04167 q 0,1.70572 0.79427,2.66927 0.80729,0.95052 2.48698,0.95052 0.82031,0 1.67968,-0.23438 0.8724,-0.23437 2.16146,-0.85937 v 1.90104 q -1.22396,0.57292 -2.16146,0.79427 -0.9375,0.23437 -2.07031,0.23437 z m 1.8099,-12.92968 q -1.34115,0 -2.52604,1.22395 -1.17188,1.22396 -1.79688,3.39844 h 0.15625 q 2.96875,0 4.54427,-0.76823 1.58854,-0.78125 1.58854,-2.2526 0,-0.69011 -0.48177,-1.14583 -0.46875,-0.45573 -1.48437,-0.45573 z"
               style="font-style:italic;font-variant:normal;font-weight:normal;font-stretch:normal;font-size:26.66666794px;font-family:'Open Sans';-inkscape-font-specification:'Open Sans, Italic';font-variant-ligatures:normal;font-variant-caps:normal;font-variant-numeric:normal;font-feature-settings:normal;text-align:center;writing-mode:lr-tb;text-anchor:middle"
               id="path1736"
               inkscape:connector-curvature="0" />
            <path
               d="m 406.40831,383.18575 -1.6276,-14.27084 h 2.1875 l 0.83333,7.98178 q 0.3125,3.35937 0.3125,4.71354 h 0.0781 q 1.65364,-3.58073 2.33073,-4.83073 l 4.23177,-7.86459 h 2.31771 l -7.69532,14.27084 z"
               style="font-style:italic;font-variant:normal;font-weight:normal;font-stretch:normal;font-size:26.66666794px;font-family:'Open Sans';-inkscape-font-specification:'Open Sans, Italic';font-variant-ligatures:normal;font-variant-caps:normal;font-variant-numeric:normal;font-feature-settings:normal;text-align:center;writing-mode:lr-tb;text-anchor:middle"
               id="path1738"
               inkscape:connector-curvature="0" />
            <path
               d="m 418.80415,383.18575 h -2.1875 l 3.04687,-14.27084 h 2.1875 z m 1.47135,-17.91667 q 0,-0.72917 0.41667,-1.1849 0.41666,-0.46875 1.08073,-0.46875 1.14583,0 1.14583,1.17188 0,0.71615 -0.44271,1.21094 -0.42969,0.49479 -1.0026,0.49479 -0.52084,0 -0.85938,-0.3125 -0.33854,-0.32552 -0.33854,-0.91146 z"
               style="font-style:italic;font-variant:normal;font-weight:normal;font-stretch:normal;font-size:26.66666794px;font-family:'Open Sans';-inkscape-font-specification:'Open Sans, Italic';font-variant-ligatures:normal;font-variant-caps:normal;font-variant-numeric:normal;font-feature-settings:normal;text-align:center;writing-mode:lr-tb;text-anchor:middle"
               id="path1740"
               inkscape:connector-curvature="0" />
            <path
               d="m 429.0255,383.44616 q -2.39584,0 -3.76303,-1.41927 -1.36718,-1.41927 -1.36718,-3.93229 0,-2.44792 0.96354,-4.6875 0.97656,-2.2526 2.57812,-3.5026 1.60157,-1.25 3.52865,-1.25 1.99219,0 2.99479,0.87239 1.00261,0.85938 1.00261,2.40886 0,2.34375 -2.16146,3.68489 -2.16146,1.32813 -6.1849,1.32813 h -0.42969 l -0.0521,1.04167 q 0,1.70572 0.79427,2.66927 0.80729,0.95052 2.48698,0.95052 0.82031,0 1.67969,-0.23438 0.87239,-0.23437 2.16146,-0.85937 v 1.90104 q -1.22396,0.57292 -2.16146,0.79427 -0.9375,0.23437 -2.07031,0.23437 z m 1.80989,-12.92968 q -1.34114,0 -2.52604,1.22395 -1.17188,1.22396 -1.79688,3.39844 h 0.15625 q 2.96875,0 4.54428,-0.76823 1.58854,-0.78125 1.58854,-2.2526 0,-0.69011 -0.48177,-1.14583 -0.46875,-0.45573 -1.48438,-0.45573 z"
               style="font-style:italic;font-variant:normal;font-weight:normal;font-stretch:normal;font-size:26.66666794px;font-family:'Open Sans';-inkscape-font-specification:'Open Sans, Italic';font-variant-ligatures:normal;font-variant-caps:normal;font-variant-numeric:normal;font-feature-settings:normal;text-align:center;writing-mode:lr-tb;text-anchor:middle"
               id="path1742"
               inkscape:connector-curvature="0" />
            <path
               d="m 446.61665,383.18575 -0.41666,-7.83854 q -0.0521,-1.22396 -0.0521,-2.23959 v -2.03125 h -0.11719 l -0.65104,1.53646 -1.08073,2.46094 -3.78906,8.11198 h -2.63021 l -0.55989,-14.27084 h 2.13541 l 0.23438,7.73438 v 1.14583 q 0,1.91407 -0.10417,3.50261 h 0.0781 q 0.61198,-1.61459 1.78385,-4.19271 l 3.84115,-8.19011 h 2.36979 l 0.48177,7.73438 q 0.0781,2.1875 0.0781,3.41146 v 0.6901 l -0.026,0.54688 h 0.0781 q 0.36458,-1.11979 1.08073,-2.83854 0.71614,-1.73178 4.20573,-9.54428 h 2.3177 l -6.58854,14.27084 z"
               style="font-style:italic;font-variant:normal;font-weight:normal;font-stretch:normal;font-size:26.66666794px;font-family:'Open Sans';-inkscape-font-specification:'Open Sans, Italic';font-variant-ligatures:normal;font-variant-caps:normal;font-variant-numeric:normal;font-feature-settings:normal;text-align:center;writing-mode:lr-tb;text-anchor:middle"
               id="path1744"
               inkscape:connector-curvature="0" />
            <path
               d="m 458.69998,380.08679 0.10417,0.29948 q -1.47136,3.05989 -3.51563,6.23698 h -1.67969 q 1.64063,-3.72396 2.65625,-6.53646 z"
               style="font-style:italic;font-variant:normal;font-weight:normal;font-stretch:normal;font-size:26.66666794px;font-family:'Open Sans';-inkscape-font-specification:'Open Sans, Italic';font-variant-ligatures:normal;font-variant-caps:normal;font-variant-numeric:normal;font-feature-settings:normal;text-align:center;writing-mode:lr-tb;text-anchor:middle"
               id="path1746"
               inkscape:connector-curvature="0" />
            <path
               d="m 473.25728,375.26908 -1.67969,7.91667 h -2.21354 l 4.02344,-19.03646 h 4.16667 q 5.80729,0 5.80729,4.76562 0,4.53125 -4.79167,5.84636 l 3.11198,8.42448 h -2.42187 l -2.72136,-7.91667 z m 1.91406,-9.17969 q -1.32812,6.43229 -1.51041,7.27865 h 2.1875 q 2.51302,0 3.86719,-1.10677 1.35416,-1.10677 1.35416,-3.17709 0,-1.57552 -0.88541,-2.27864 -0.8724,-0.71615 -2.85157,-0.71615 z"
               style="font-style:italic;font-variant:normal;font-weight:normal;font-stretch:normal;font-size:26.66666794px;font-family:'Open Sans';-inkscape-font-specification:'Open Sans, Italic';font-variant-ligatures:normal;font-variant-caps:normal;font-variant-numeric:normal;font-feature-settings:normal;text-align:center;writing-mode:lr-tb;text-anchor:middle"
               id="path1748"
               inkscape:connector-curvature="0" />
            <path
               d="m 489.80676,383.44616 q -2.39583,0 -3.76302,-1.41927 -1.36719,-1.41927 -1.36719,-3.93229 0,-2.44792 0.96354,-4.6875 0.97657,-2.2526 2.57813,-3.5026 1.60156,-1.25 3.52865,-1.25 1.99218,0 2.99479,0.87239 1.0026,0.85938 1.0026,2.40886 0,2.34375 -2.16146,3.68489 -2.16146,1.32813 -6.18489,1.32813 h -0.42969 l -0.0521,1.04167 q 0,1.70572 0.79427,2.66927 0.80729,0.95052 2.48698,0.95052 0.82031,0 1.67968,-0.23438 0.8724,-0.23437 2.16146,-0.85937 v 1.90104 q -1.22396,0.57292 -2.16146,0.79427 -0.9375,0.23437 -2.07031,0.23437 z m 1.8099,-12.92968 q -1.34115,0 -2.52605,1.22395 -1.17187,1.22396 -1.79687,3.39844 h 0.15625 q 2.96875,0 4.54427,-0.76823 1.58854,-0.78125 1.58854,-2.2526 0,-0.69011 -0.48177,-1.14583 -0.46875,-0.45573 -1.48437,-0.45573 z"
               style="font-style:italic;font-variant:normal;font-weight:normal;font-stretch:normal;font-size:26.66666794px;font-family:'Open Sans';-inkscape-font-specification:'Open Sans, Italic';font-variant-ligatures:normal;font-variant-caps:normal;font-variant-numeric:normal;font-feature-settings:normal;text-align:center;writing-mode:lr-tb;text-anchor:middle"
               id="path1750"
               inkscape:connector-curvature="0" />
            <path
               d="m 499.48123,383.18575 -1.6276,-14.27084 h 2.1875 l 0.83333,7.98178 q 0.3125,3.35937 0.3125,4.71354 h 0.0781 q 1.65364,-3.58073 2.33073,-4.83073 l 4.23177,-7.86459 h 2.31771 l -7.69532,14.27084 z"
               style="font-style:italic;font-variant:normal;font-weight:normal;font-stretch:normal;font-size:26.66666794px;font-family:'Open Sans';-inkscape-font-specification:'Open Sans, Italic';font-variant-ligatures:normal;font-variant-caps:normal;font-variant-numeric:normal;font-feature-settings:normal;text-align:center;writing-mode:lr-tb;text-anchor:middle"
               id="path1752"
               inkscape:connector-curvature="0" />
            <path
               d="m 511.87707,383.18575 h -2.1875 l 3.04687,-14.27084 h 2.1875 z m 1.47135,-17.91667 q 0,-0.72917 0.41667,-1.1849 0.41667,-0.46875 1.08073,-0.46875 1.14583,0 1.14583,1.17188 0,0.71615 -0.44271,1.21094 -0.42968,0.49479 -1.0026,0.49479 -0.52083,0 -0.85938,-0.3125 -0.33854,-0.32552 -0.33854,-0.91146 z"
               style="font-style:italic;font-variant:normal;font-weight:normal;font-stretch:normal;font-size:26.66666794px;font-family:'Open Sans';-inkscape-font-specification:'Open Sans, Italic';font-variant-ligatures:normal;font-variant-caps:normal;font-variant-numeric:normal;font-feature-settings:normal;text-align:center;writing-mode:lr-tb;text-anchor:middle"
               id="path1754"
               inkscape:connector-curvature="0" />
            <path
               d="m 525.26248,379.13627 q 0,2.03125 -1.44531,3.17708 -1.43229,1.13281 -4.04948,1.13281 -2.20052,0 -3.97136,-0.89843 v -2.05729 q 0.91146,0.54687 1.96615,0.84635 1.05469,0.29948 1.95312,0.29948 1.64063,0 2.47396,-0.65104 0.83334,-0.65104 0.83334,-1.66667 0,-0.74219 -0.45573,-1.25 -0.45573,-0.50781 -1.96615,-1.39323 -1.69271,-0.95052 -2.39583,-1.86198 -0.70313,-0.91146 -0.70313,-2.16146 0,-1.79687 1.31511,-2.89062 1.3151,-1.10677 3.46354,-1.10677 2.22656,0 4.29687,0.96354 l -0.70312,1.78385 -0.72917,-0.32552 q -1.3151,-0.55989 -2.86458,-0.55989 -1.21094,0 -1.90104,0.57291 -0.69011,0.5599 -0.69011,1.45834 0,0.72916 0.45573,1.25 0.46875,0.52083 1.91406,1.34114 1.39323,0.78125 1.99219,1.34115 0.61198,0.55989 0.91146,1.21094 0.29948,0.63802 0.29948,1.44531 z"
               style="font-style:italic;font-variant:normal;font-weight:normal;font-stretch:normal;font-size:26.66666794px;font-family:'Open Sans';-inkscape-font-specification:'Open Sans, Italic';font-variant-ligatures:normal;font-variant-caps:normal;font-variant-numeric:normal;font-feature-settings:normal;text-align:center;writing-mode:lr-tb;text-anchor:middle"
               id="path1756"
               inkscape:connector-curvature="0" />
            <path
               d="m 533.50468,383.44616 q -2.39583,0 -3.76302,-1.41927 -1.36719,-1.41927 -1.36719,-3.93229 0,-2.44792 0.96355,-4.6875 0.97656,-2.2526 2.57812,-3.5026 1.60156,-1.25 3.52865,-1.25 1.99218,0 2.99479,0.87239 1.0026,0.85938 1.0026,2.40886 0,2.34375 -2.16146,3.68489 -2.16145,1.32813 -6.18489,1.32813 h -0.42969 l -0.0521,1.04167 q 0,1.70572 0.79427,2.66927 0.80729,0.95052 2.48698,0.95052 0.82031,0 1.67969,-0.23438 0.87239,-0.23437 2.16145,-0.85937 v 1.90104 q -1.22395,0.57292 -2.16145,0.79427 -0.9375,0.23437 -2.07032,0.23437 z m 1.8099,-12.92968 q -1.34115,0 -2.52604,1.22395 -1.17188,1.22396 -1.79688,3.39844 h 0.15625 q 2.96875,0 4.54427,-0.76823 1.58854,-0.78125 1.58854,-2.2526 0,-0.69011 -0.48177,-1.14583 -0.46875,-0.45573 -1.48437,-0.45573 z"
               style="font-style:italic;font-variant:normal;font-weight:normal;font-stretch:normal;font-size:26.66666794px;font-family:'Open Sans';-inkscape-font-specification:'Open Sans, Italic';font-variant-ligatures:normal;font-variant-caps:normal;font-variant-numeric:normal;font-feature-settings:normal;text-align:center;writing-mode:lr-tb;text-anchor:middle"
               id="path1758"
               inkscape:connector-curvature="0" />
        </g>
    </g>
    <g
       inkscape:groupmode="layer"
       id="layer3"
       inkscape:label="Text"
       transform="translate(-14.439165,-47.634184)"
       style="display:none">
        <flowRoot
           xml:space="preserve"
           id="flowRoot1643"
           style="font-style:normal;font-variant:normal;font-weight:300;font-stretch:normal;font-size:32px;line-height:1.25;font-family:'Open Sans';-inkscape-font-specification:'Open Sans, Light';font-variant-ligatures:normal;font-variant-caps:normal;font-variant-numeric:normal;font-feature-settings:normal;text-align:center;letter-spacing:0px;word-spacing:0px;writing-mode:lr-tb;text-anchor:middle;fill:#000000;fill-opacity:1;stroke:none"
           transform="matrix(0.26458333,0,0,0.26458333,12.011445,-2.1804216)"><flowRegion
         id="flowRegion1645"><rect
           id="rect1647"
           width="309.03613"
           height="38.554222"
           x="245.78313"
           y="409.26666" /></flowRegion><flowPara
         id="flowPara1649"
         style="font-style:italic;font-variant:normal;font-weight:normal;font-stretch:normal;font-size:26.66666794px;font-family:'Open Sans';-inkscape-font-specification:'Open Sans, Italic';font-variant-ligatures:normal;font-variant-caps:normal;font-variant-numeric:normal;font-feature-settings:normal;text-align:center;writing-mode:lr-tb;text-anchor:middle">Create, Review, Revise</flowPara></flowRoot>
    </g>
    <g
       inkscape:groupmode="layer"
       id="layer2"
       inkscape:label="Icon"
       transform="translate(-14.439165,-47.634184)">
        <g
           inkscape:label="Layer 1"
           id="layer1-0"
           transform="matrix(0.19221,0,0,0.19221,24.527899,57.690045)">
            <rect
               inkscape:export-ydpi="200"
               inkscape:export-xdpi="200"
               inkscape:export-filename="C:\Users\Dylan Bulmer\Desktop\TheDocsLogo_2-2.png"
               rx="22.330097"
               ry="22.330097"
               transform="matrix(0.70734537,-0.70686811,0.70734537,0.70686811,0,0)"
               y="92.906906"
               x="-88.295731"
               height="176.34711"
               width="176.34711"
               id="rect1574"
               style="opacity:1;fill:none;fill-opacity:1;stroke:#1177ff;stroke-width:20.00000191;stroke-linecap:round;stroke-linejoin:round;stroke-miterlimit:4;stroke-dasharray:none;stroke-opacity:1;paint-order:markers fill stroke" />
            <g
               id="flowRoot1578"
               style="font-style:normal;font-variant:normal;font-weight:300;font-stretch:normal;font-size:32px;line-height:1.25;font-family:'Open Sans';-inkscape-font-specification:'Open Sans, Light';font-variant-ligatures:normal;font-variant-caps:normal;font-variant-numeric:normal;font-feature-settings:normal;text-align:center;letter-spacing:0px;word-spacing:0px;writing-mode:lr-tb;text-anchor:middle;fill:#000000;fill-opacity:1;stroke:none"
               transform="matrix(1.620155,0,0,1.6201514,-120.07892,-116.44327)"
               aria-label="D">
                <path
                   id="path825"
                   style="font-style:normal;font-variant:normal;font-weight:bold;font-stretch:normal;font-size:96px;font-family:'Open Sans';-inkscape-font-specification:'Open Sans, Bold';font-variant-ligatures:normal;font-variant-caps:normal;font-variant-numeric:normal;font-feature-settings:normal;text-align:center;writing-mode:lr-tb;text-anchor:middle;fill:#1177ff;fill-opacity:1"
                   d="m 186.48828,150.22087 c 0,11.28125 -3.21875,19.92187 -9.65625,25.92187 -6.40625,6 -15.67187,9 -27.79687,9 l -19.40625,3e-5 v -68.53128 h 21.51562 c 11.1875,0 19.875,2.95313 26.0625,8.85938 6.1875,5.90625 9.28125,14.15625 9.28125,24.75 z m -15.09375,0.375 c 0,-14.71875 -6.5,-22.07813 -19.5,-22.07813 h -7.73437 v 44.625 h 6.23437 c 14,0 21,-7.51562 21,-22.54687 z"
                   inkscape:connector-curvature="0"
                   sodipodi:nodetypes="scsccsssssccss" />
            </g>
        </g>
        <g
           transform="matrix(1.151376,0,0,1.1485957,42.467841,-31.684827)"
           inkscape:label="Layer 2"
           id="layer2-2">
            <g
               id="flowRoot14253"
               style="font-style:normal;font-variant:normal;font-weight:300;font-stretch:normal;font-size:32px;line-height:1.25;font-family:'Open Sans';-inkscape-font-specification:'Open Sans, Light';font-variant-ligatures:normal;font-variant-caps:normal;font-variant-numeric:normal;font-feature-settings:normal;text-align:center;letter-spacing:0px;word-spacing:0px;writing-mode:lr-tb;text-anchor:middle;fill:#000000;fill-opacity:1;stroke:none"
               transform="matrix(0.26458333,0,0,0.26733927,16.190846,85.527637)"
               aria-label="THE DOCS">
                <path
                   inkscape:connector-curvature="0"
                   id="path14423"
                   style="letter-spacing:-11px;fill:#1377ff;fill-opacity:1;stroke-width:1.00704312"
                   d="M 71.618752,86.013835 H 60.415627 V 26.259046 h -20.15625 v -9.745212 h 51.515625 v 9.745212 h -20.15625 z" />
                <path
                   inkscape:connector-curvature="0"
                   id="path14425"
                   style="letter-spacing:-29.30000114px;fill:#1377ff;fill-opacity:1;stroke-width:1.00704312"
                   d="m 145.36875,86.013835 h -11.25 V 54.686543 H 102.525 V 86.013835 H 91.321876 V 16.513834 H 102.525 v 28.427497 h 31.59375 V 16.513834 h 11.25 z" />
                <path
                   inkscape:connector-curvature="0"
                   id="path14427"
                   style="font-style:normal;font-variant:normal;font-weight:600;font-stretch:normal;font-size:96px;font-family:'Open Sans';-inkscape-font-specification:'Open Sans, Semi-Bold';font-variant-ligatures:normal;font-variant-caps:normal;font-variant-numeric:normal;font-feature-settings:normal;text-align:center;writing-mode:lr-tb;text-anchor:middle;fill:#1377ff;fill-opacity:1;stroke-width:1.00704312"
                   d="M 172.975,86.013835 H 134.20937 V 16.513834 H 172.975 v 9.602599 h -27.5625 v 18.919973 h 25.82812 V 54.54393 H 145.4125 v 21.819768 h 27.5625 z" />
                <path
                   inkscape:connector-curvature="0"
                   id="path14429"
                   style="letter-spacing:-22px;fill:#1377ff;fill-opacity:1;stroke-width:1.00704312"
                   d="m 268.50625,50.598308 q 0,17.208618 -9.42188,26.335842 -9.42187,9.079685 -27.14062,9.079685 H 212.77187 V 16.513834 h 21.1875 q 16.35938,0 25.45313,8.937073 9.09375,8.937072 9.09375,25.147401 z m -11.8125,0.380301 q 0,-24.957251 -23.01563,-24.957251 H 223.975 v 50.437415 h 7.96875 q 24.75,0 24.75,-25.480164 z" />
                <path
                   inkscape:connector-curvature="0"
                   id="path14431"
                   style="letter-spacing:-22px;fill:#1377ff;fill-opacity:1;stroke-width:0.99255258"
                   d="m 322.11562,51.240744 q 0,16.486047 -8.39062,25.629568 -8.34375,9.143522 -23.67188,9.143522 -15.51562,0 -23.85937,-9.051163 -8.29688,-9.097342 -8.29688,-25.814286 0,-16.716944 8.34375,-25.675748 8.39063,-8.958804 23.90625,-8.958804 15.28125,0 23.625,9.097342 8.34375,9.097343 8.34375,25.629569 z m -52.3125,0 q 0,12.468439 5.10938,18.933555 5.10937,6.418937 15.14062,6.418937 9.98438,0 15.04688,-6.372758 5.10937,-6.372757 5.10937,-18.979734 0,-12.422259 -5.0625,-18.841196 -5.01562,-6.418937 -15,-6.418937 -10.07812,0 -15.23437,6.418937 -5.10938,6.418937 -5.10938,18.841196 z" />
                <path
                   sodipodi:nodetypes="sscscscssssscscscsccsssscsscscccscssscccs"
                   inkscape:connector-curvature="0"
                   id="path14433"
                   transform="translate(40.259377,16.498209)"
                   d="m 303.82422,0.10742188 c -6.65625,0 -12.45313,1.40157402 -17.39063,4.20312502 -4.9375,2.8015499 -8.71875,6.8351571 -11.34375,12.0996091 -2.59375,5.264452 -3.89062,11.404559 -3.89062,18.423828 0,11.144629 2.6875,19.719334 8.0625,25.722657 5.375,5.972536 13.07812,8.958984 23.10937,8.958984 6.8125,0 10.40625,-0.955534 17.78125,-4.556641 4.9375,2.370543 11.28125,4.556641 19.03125,4.556641 7.75,0 13.82813,-1.707724 18.23438,-5.125 4.40625,-3.417275 6.60937,-8.127536 6.60937,-14.130859 0,-3.047841 -0.54687,-5.695963 -1.64062,-7.94336 -1.09375,-2.247398 -2.8125,-4.265178 -5.15625,-6.050781 -2.34375,-1.785603 -6.03125,-3.708804 -11.0625,-5.771484 -4.46875,-1.81639 -7.5625,-3.278414 -9.28125,-4.386719 -1.71875,-1.108306 -2.95313,-2.278315 -3.70313,-3.509766 -0.75,-1.262237 -1.125,-2.770573 -1.125,-4.52539 0,-2.555261 0.9375,-4.603266 2.8125,-6.142578 1.875,-1.5701 4.625,-2.3554692 8.25,-2.3554692 4.78125,0 10.21875,1.2626352 16.3125,3.7871092 l 3.5625,-9.0039061 c -6.5,-2.832337 -13.03125,-4.25000002 -19.59375,-4.25000002 -6.84375,0 -12.29687,1.61705142 -16.35937,4.84960932 -4.0625,3.232558 -6.09375,7.6649408 -6.09375,13.2988278 0,4.494795 1.28125,8.34315 3.84375,11.544922 2.5625,3.201772 6.96875,6.049282 13.21875,8.542969 6.0625,2.401329 10.0625,4.479558 12,6.234375 1.9375,1.754817 2.90625,3.895448 2.90625,6.419922 0,2.80155 -1.0625,5.032853 -3.1875,6.695312 -2.09375,1.662459 -5.35938,2.494141 -9.79688,2.494141 -3.03125,0 -6.3125,-0.414865 -9.84375,-1.246094 -3.5,-0.831229 -6.8125,-1.971014 -9.9375,-3.417968 -2.9375,0.892801 -7.98437,2.990234 -7.98437,2.990234 -5,1.600002 -5.53125,1.582031 -8.4375,1.582031 -6.71875,0 -11.85938,-2.124542 -15.42188,-6.373047 -3.53125,-4.248505 -5.29687,-10.513415 -5.29687,-18.794922 0,-7.912071 1.84375,-14.116533 5.53125,-18.611328 3.6875,-4.494795 8.75,-6.7421872 15.1875,-6.7421872 2.84375,0 5.54687,0.4168178 8.10937,1.2480472 2.59375,0.800443 5.04688,1.738887 7.35938,2.816406 l 4.03125,-9.1894532 c -5.9375,-2.893909 -12.40625,-4.34179692 -19.40625,-4.34179692 z"
                   style="letter-spacing:-11px;fill:#1377ff;fill-opacity:1;stroke-width:0.99255258" />
            </g>
        </g>
    </g>
    <g
       inkscape:label="Logo"
       inkscape:groupmode="layer"
       id="layer1"
       transform="translate(-14.439165,-47.634184)" />
</svg>
